<mxfile host="app.diagrams.net" modified="2023-05-08T20:17:04.960Z" agent="Mozilla/5.0 (Windows NT 10.0; Win64; x64) AppleWebKit/537.36 (KHTML, like Gecko) Chrome/112.0.0.0 Safari/537.36" etag="xFmi1oOYONrZ7pAv46Hf" version="21.2.9" type="github">
  <diagram name="Σελίδα-1" id="3w3KB39ikiWXsNB1Q7ST">
    <mxGraphModel dx="860" dy="708" grid="1" gridSize="10" guides="1" tooltips="1" connect="1" arrows="1" fold="1" page="1" pageScale="1" pageWidth="2339" pageHeight="3300" math="0" shadow="1">
      <root>
        <mxCell id="0" />
        <mxCell id="1" parent="0" />
        <mxCell id="REK4LTANbWhDEIIJufRj-1" value="Φοιτητής" style="shape=umlActor;verticalLabelPosition=bottom;verticalAlign=top;html=1;outlineConnect=0;" parent="1" vertex="1">
          <mxGeometry x="40" y="30" width="30" height="60" as="geometry" />
        </mxCell>
        <mxCell id="REK4LTANbWhDEIIJufRj-2" value="" style="endArrow=none;dashed=1;html=1;rounded=0;" parent="1" source="REK4LTANbWhDEIIJufRj-5" edge="1">
          <mxGeometry width="50" height="50" relative="1" as="geometry">
            <mxPoint x="60" y="730" as="sourcePoint" />
            <mxPoint x="55" y="110" as="targetPoint" />
          </mxGeometry>
        </mxCell>
        <mxCell id="REK4LTANbWhDEIIJufRj-3" value="" style="rounded=0;whiteSpace=wrap;html=1;fillColor=default;" parent="1" vertex="1">
          <mxGeometry x="110" y="30" width="120" height="60" as="geometry" />
        </mxCell>
        <mxCell id="REK4LTANbWhDEIIJufRj-4" value="Κεντρικό Μενού" style="text;html=1;strokeColor=none;fillColor=none;align=center;verticalAlign=middle;whiteSpace=wrap;rounded=0;" parent="1" vertex="1">
          <mxGeometry x="140" y="45" width="60" height="30" as="geometry" />
        </mxCell>
        <mxCell id="REK4LTANbWhDEIIJufRj-6" value="" style="endArrow=none;dashed=1;html=1;rounded=0;" parent="1" source="REK4LTANbWhDEIIJufRj-100" target="REK4LTANbWhDEIIJufRj-5" edge="1">
          <mxGeometry width="50" height="50" relative="1" as="geometry">
            <mxPoint x="60" y="1653.076923076923" as="sourcePoint" />
            <mxPoint x="55" y="110" as="targetPoint" />
          </mxGeometry>
        </mxCell>
        <mxCell id="REK4LTANbWhDEIIJufRj-5" value="" style="rounded=0;whiteSpace=wrap;html=1;rotation=-90;fillColor=#f0a30a;strokeColor=#BD7000;fontColor=#000000;" parent="1" vertex="1">
          <mxGeometry x="-282.81" y="464.06" width="675.63" height="17.5" as="geometry" />
        </mxCell>
        <mxCell id="REK4LTANbWhDEIIJufRj-7" value="" style="rounded=0;whiteSpace=wrap;html=1;rotation=-90;fillColor=#f0a30a;strokeColor=#BD7000;fontColor=#000000;" parent="1" vertex="1">
          <mxGeometry x="141.87" y="160" width="68.13" height="15.62" as="geometry" />
        </mxCell>
        <mxCell id="REK4LTANbWhDEIIJufRj-8" value="" style="rounded=0;whiteSpace=wrap;html=1;rotation=-90;fillColor=#f0a30a;strokeColor=#BD7000;fontColor=#000000;" parent="1" vertex="1">
          <mxGeometry x="-22.34" y="477.34" width="617.2" height="17.5" as="geometry" />
        </mxCell>
        <mxCell id="REK4LTANbWhDEIIJufRj-9" value="" style="endArrow=none;dashed=1;html=1;rounded=0;exitX=1;exitY=0.5;exitDx=0;exitDy=0;" parent="1" source="REK4LTANbWhDEIIJufRj-7" edge="1">
          <mxGeometry width="50" height="50" relative="1" as="geometry">
            <mxPoint x="175.43" y="130" as="sourcePoint" />
            <mxPoint x="175.43" y="90" as="targetPoint" />
          </mxGeometry>
        </mxCell>
        <mxCell id="REK4LTANbWhDEIIJufRj-11" value="" style="endArrow=none;dashed=1;html=1;rounded=0;entryX=0;entryY=0.5;entryDx=0;entryDy=0;" parent="1" source="REK4LTANbWhDEIIJufRj-71" target="REK4LTANbWhDEIIJufRj-7" edge="1">
          <mxGeometry width="50" height="50" relative="1" as="geometry">
            <mxPoint x="176" y="840" as="sourcePoint" />
            <mxPoint x="180" y="210" as="targetPoint" />
          </mxGeometry>
        </mxCell>
        <mxCell id="REK4LTANbWhDEIIJufRj-12" value="" style="endArrow=classic;html=1;rounded=0;" parent="1" edge="1">
          <mxGeometry width="50" height="50" relative="1" as="geometry">
            <mxPoint x="70" y="150" as="sourcePoint" />
            <mxPoint x="160" y="150" as="targetPoint" />
          </mxGeometry>
        </mxCell>
        <mxCell id="REK4LTANbWhDEIIJufRj-15" value="Επιλογή &quot;Χάρτης&quot;" style="text;html=1;strokeColor=none;fillColor=default;align=center;verticalAlign=middle;whiteSpace=wrap;rounded=0;" parent="1" vertex="1">
          <mxGeometry x="90" y="110" width="60" height="30" as="geometry" />
        </mxCell>
        <mxCell id="REK4LTANbWhDEIIJufRj-17" value="" style="endArrow=classic;html=1;rounded=0;exitX=0.25;exitY=1;exitDx=0;exitDy=0;" parent="1" source="REK4LTANbWhDEIIJufRj-7" edge="1">
          <mxGeometry width="50" height="50" relative="1" as="geometry">
            <mxPoint x="180" y="160" as="sourcePoint" />
            <mxPoint x="270" y="185" as="targetPoint" />
          </mxGeometry>
        </mxCell>
        <mxCell id="REK4LTANbWhDEIIJufRj-18" value="Εμφάνισε" style="text;html=1;strokeColor=none;fillColor=default;align=center;verticalAlign=middle;whiteSpace=wrap;rounded=0;" parent="1" vertex="1">
          <mxGeometry x="200" y="145.62" width="60" height="30" as="geometry" />
        </mxCell>
        <mxCell id="REK4LTANbWhDEIIJufRj-19" value="" style="rounded=0;whiteSpace=wrap;html=1;" parent="1" vertex="1">
          <mxGeometry x="240" y="30" width="120" height="60" as="geometry" />
        </mxCell>
        <mxCell id="REK4LTANbWhDEIIJufRj-21" value="" style="endArrow=none;dashed=1;html=1;rounded=0;exitX=1;exitY=0.5;exitDx=0;exitDy=0;" parent="1" source="REK4LTANbWhDEIIJufRj-8" edge="1">
          <mxGeometry width="50" height="50" relative="1" as="geometry">
            <mxPoint x="285.75" y="130" as="sourcePoint" />
            <mxPoint x="285.75" y="90" as="targetPoint" />
          </mxGeometry>
        </mxCell>
        <mxCell id="REK4LTANbWhDEIIJufRj-22" value="Οθόνη Χάρτη" style="text;html=1;strokeColor=none;fillColor=none;align=center;verticalAlign=middle;whiteSpace=wrap;rounded=0;" parent="1" vertex="1">
          <mxGeometry x="270" y="45" width="60" height="30" as="geometry" />
        </mxCell>
        <mxCell id="REK4LTANbWhDEIIJufRj-23" value="" style="endArrow=none;dashed=1;html=1;rounded=0;" parent="1" source="REK4LTANbWhDEIIJufRj-92" edge="1">
          <mxGeometry width="50" height="50" relative="1" as="geometry">
            <mxPoint x="286" y="1653.076923076923" as="sourcePoint" />
            <mxPoint x="286" y="799" as="targetPoint" />
          </mxGeometry>
        </mxCell>
        <mxCell id="REK4LTANbWhDEIIJufRj-24" value="" style="endArrow=classic;html=1;rounded=0;" parent="1" edge="1">
          <mxGeometry width="50" height="50" relative="1" as="geometry">
            <mxPoint x="70" y="260" as="sourcePoint" />
            <mxPoint x="270" y="260" as="targetPoint" />
          </mxGeometry>
        </mxCell>
        <mxCell id="REK4LTANbWhDEIIJufRj-25" value="&lt;font style=&quot;font-size: 12px;&quot;&gt;Ενεργοποίηση τοποθεσίας&lt;/font&gt;" style="text;html=1;strokeColor=none;fillColor=default;align=center;verticalAlign=middle;whiteSpace=wrap;rounded=0;" parent="1" vertex="1">
          <mxGeometry x="80" y="210" width="80" height="40" as="geometry" />
        </mxCell>
        <mxCell id="REK4LTANbWhDEIIJufRj-26" value="" style="rounded=0;whiteSpace=wrap;html=1;" parent="1" vertex="1">
          <mxGeometry x="380" y="30" width="120" height="60" as="geometry" />
        </mxCell>
        <mxCell id="REK4LTANbWhDEIIJufRj-27" value="Ένδειξη κτιρίου" style="text;html=1;strokeColor=none;fillColor=none;align=center;verticalAlign=middle;whiteSpace=wrap;rounded=0;" parent="1" vertex="1">
          <mxGeometry x="410" y="45" width="60" height="30" as="geometry" />
        </mxCell>
        <mxCell id="REK4LTANbWhDEIIJufRj-31" value="" style="rounded=0;whiteSpace=wrap;html=1;rotation=-90;fillColor=#f0a30a;strokeColor=#BD7000;fontColor=#000000;" parent="1" vertex="1">
          <mxGeometry x="385" y="335" width="92.12" height="16.12" as="geometry" />
        </mxCell>
        <mxCell id="REK4LTANbWhDEIIJufRj-32" value="" style="endArrow=none;dashed=1;html=1;rounded=0;exitX=1;exitY=0.5;exitDx=0;exitDy=0;" parent="1" source="REK4LTANbWhDEIIJufRj-31" edge="1">
          <mxGeometry width="50" height="50" relative="1" as="geometry">
            <mxPoint x="380" y="140" as="sourcePoint" />
            <mxPoint x="430" y="90" as="targetPoint" />
          </mxGeometry>
        </mxCell>
        <mxCell id="REK4LTANbWhDEIIJufRj-33" value="" style="endArrow=none;dashed=1;html=1;rounded=0;entryX=0;entryY=0.75;entryDx=0;entryDy=0;" parent="1" source="REK4LTANbWhDEIIJufRj-48" target="REK4LTANbWhDEIIJufRj-31" edge="1">
          <mxGeometry width="50" height="50" relative="1" as="geometry">
            <mxPoint x="435" y="720" as="sourcePoint" />
            <mxPoint x="540" y="670" as="targetPoint" />
          </mxGeometry>
        </mxCell>
        <mxCell id="REK4LTANbWhDEIIJufRj-35" value="" style="endArrow=classic;html=1;rounded=0;" parent="1" edge="1">
          <mxGeometry width="50" height="50" relative="1" as="geometry">
            <mxPoint x="300" y="310" as="sourcePoint" />
            <mxPoint x="420" y="310" as="targetPoint" />
          </mxGeometry>
        </mxCell>
        <mxCell id="REK4LTANbWhDEIIJufRj-36" value="επέστρεψε τοποθεσία" style="html=1;verticalAlign=bottom;endArrow=open;dashed=1;endSize=8;edgeStyle=elbowEdgeStyle;elbow=vertical;curved=0;rounded=0;" parent="1" edge="1">
          <mxGeometry y="-10" relative="1" as="geometry">
            <mxPoint x="410" y="360" as="sourcePoint" />
            <mxPoint x="310" y="360" as="targetPoint" />
            <mxPoint as="offset" />
          </mxGeometry>
        </mxCell>
        <mxCell id="REK4LTANbWhDEIIJufRj-37" value="δείξε ένδειξη τοποθεσίας" style="text;html=1;strokeColor=none;fillColor=default;align=center;verticalAlign=middle;whiteSpace=wrap;rounded=0;" parent="1" vertex="1">
          <mxGeometry x="330" y="270" width="60" height="40" as="geometry" />
        </mxCell>
        <mxCell id="REK4LTANbWhDEIIJufRj-38" value="" style="endArrow=classic;html=1;rounded=0;" parent="1" edge="1">
          <mxGeometry width="50" height="50" relative="1" as="geometry">
            <mxPoint x="70" y="430" as="sourcePoint" />
            <mxPoint x="270" y="430" as="targetPoint" />
          </mxGeometry>
        </mxCell>
        <mxCell id="REK4LTANbWhDEIIJufRj-39" value="μεγέθυνση/σμίκρυνση" style="text;html=1;strokeColor=none;fillColor=default;align=center;verticalAlign=middle;whiteSpace=wrap;rounded=0;" parent="1" vertex="1">
          <mxGeometry x="100" y="390" width="60" height="30" as="geometry" />
        </mxCell>
        <mxCell id="REK4LTANbWhDEIIJufRj-40" value="" style="endArrow=classic;html=1;rounded=0;" parent="1" edge="1">
          <mxGeometry width="50" height="50" relative="1" as="geometry">
            <mxPoint x="300" y="470" as="sourcePoint" />
            <mxPoint x="410" y="470" as="targetPoint" />
          </mxGeometry>
        </mxCell>
        <mxCell id="REK4LTANbWhDEIIJufRj-41" value="" style="rounded=0;whiteSpace=wrap;html=1;rotation=-90;fillColor=#f0a30a;strokeColor=#BD7000;fontColor=#000000;" parent="1" vertex="1">
          <mxGeometry x="385" y="490" width="92.12" height="16.12" as="geometry" />
        </mxCell>
        <mxCell id="REK4LTANbWhDEIIJufRj-42" value="δείξε ενδείξεις κτιρίων" style="text;html=1;strokeColor=none;fillColor=default;align=center;verticalAlign=middle;whiteSpace=wrap;rounded=0;" parent="1" vertex="1">
          <mxGeometry x="325" y="419.38" width="65" height="46.25" as="geometry" />
        </mxCell>
        <mxCell id="REK4LTANbWhDEIIJufRj-43" value="επέστρεψε ενδείξεις" style="html=1;verticalAlign=bottom;endArrow=open;dashed=1;endSize=8;edgeStyle=elbowEdgeStyle;elbow=vertical;curved=0;rounded=0;" parent="1" edge="1">
          <mxGeometry x="-0.1" y="-10" relative="1" as="geometry">
            <mxPoint x="405" y="520" as="sourcePoint" />
            <mxPoint x="305" y="520" as="targetPoint" />
            <mxPoint as="offset" />
          </mxGeometry>
        </mxCell>
        <mxCell id="REK4LTANbWhDEIIJufRj-44" value="" style="rounded=0;whiteSpace=wrap;html=1;" parent="1" vertex="1">
          <mxGeometry x="520" y="30" width="120" height="60" as="geometry" />
        </mxCell>
        <mxCell id="REK4LTANbWhDEIIJufRj-45" value="Πληροφορίες κτιρίου" style="text;html=1;strokeColor=none;fillColor=none;align=center;verticalAlign=middle;whiteSpace=wrap;rounded=0;" parent="1" vertex="1">
          <mxGeometry x="540" y="45" width="80" height="30" as="geometry" />
        </mxCell>
        <mxCell id="REK4LTANbWhDEIIJufRj-46" value="" style="endArrow=classic;html=1;rounded=0;" parent="1" edge="1">
          <mxGeometry width="50" height="50" relative="1" as="geometry">
            <mxPoint x="80" y="580" as="sourcePoint" />
            <mxPoint x="420" y="580" as="targetPoint" />
          </mxGeometry>
        </mxCell>
        <mxCell id="REK4LTANbWhDEIIJufRj-47" value="Επιλογή ένδειξης" style="text;html=1;strokeColor=none;fillColor=default;align=center;verticalAlign=middle;whiteSpace=wrap;rounded=0;" parent="1" vertex="1">
          <mxGeometry x="81.87" y="540" width="60" height="30" as="geometry" />
        </mxCell>
        <mxCell id="REK4LTANbWhDEIIJufRj-51" value="" style="endArrow=none;dashed=1;html=1;rounded=0;entryX=0;entryY=0.75;entryDx=0;entryDy=0;" parent="1" source="REK4LTANbWhDEIIJufRj-78" target="REK4LTANbWhDEIIJufRj-48" edge="1">
          <mxGeometry width="50" height="50" relative="1" as="geometry">
            <mxPoint x="435" y="1660" as="sourcePoint" />
            <mxPoint x="435" y="389" as="targetPoint" />
          </mxGeometry>
        </mxCell>
        <mxCell id="REK4LTANbWhDEIIJufRj-48" value="" style="rounded=0;whiteSpace=wrap;html=1;rotation=-90;fillColor=#f0a30a;strokeColor=#BD7000;fontColor=#000000;" parent="1" vertex="1">
          <mxGeometry x="324.38" y="670.62" width="213.37" height="16.12" as="geometry" />
        </mxCell>
        <mxCell id="REK4LTANbWhDEIIJufRj-52" value="" style="endArrow=none;dashed=1;html=1;rounded=0;entryX=0.45;entryY=1;entryDx=0;entryDy=0;entryPerimeter=0;" parent="1" source="REK4LTANbWhDEIIJufRj-53" target="REK4LTANbWhDEIIJufRj-44" edge="1">
          <mxGeometry width="50" height="50" relative="1" as="geometry">
            <mxPoint x="580" y="840" as="sourcePoint" />
            <mxPoint x="580" y="360" as="targetPoint" />
          </mxGeometry>
        </mxCell>
        <mxCell id="REK4LTANbWhDEIIJufRj-58" value="" style="endArrow=none;dashed=1;html=1;rounded=0;entryX=0;entryY=0.5;entryDx=0;entryDy=0;" parent="1" source="REK4LTANbWhDEIIJufRj-82" target="REK4LTANbWhDEIIJufRj-53" edge="1">
          <mxGeometry width="50" height="50" relative="1" as="geometry">
            <mxPoint x="574" y="1660" as="sourcePoint" />
            <mxPoint x="640" y="620" as="targetPoint" />
          </mxGeometry>
        </mxCell>
        <mxCell id="REK4LTANbWhDEIIJufRj-53" value="" style="rounded=0;whiteSpace=wrap;html=1;rotation=-90;fillColor=#f0a30a;strokeColor=#BD7000;fontColor=#000000;" parent="1" vertex="1">
          <mxGeometry x="543.94" y="633.94" width="60" height="16.12" as="geometry" />
        </mxCell>
        <mxCell id="REK4LTANbWhDEIIJufRj-59" value="" style="endArrow=classic;html=1;rounded=0;" parent="1" edge="1">
          <mxGeometry width="50" height="50" relative="1" as="geometry">
            <mxPoint x="440" y="620" as="sourcePoint" />
            <mxPoint x="560" y="620" as="targetPoint" />
          </mxGeometry>
        </mxCell>
        <mxCell id="REK4LTANbWhDEIIJufRj-60" value="Εμφάνισε" style="text;html=1;strokeColor=none;fillColor=default;align=center;verticalAlign=middle;whiteSpace=wrap;rounded=0;" parent="1" vertex="1">
          <mxGeometry x="467.88" y="585" width="60" height="30" as="geometry" />
        </mxCell>
        <mxCell id="REK4LTANbWhDEIIJufRj-61" value="" style="rounded=0;whiteSpace=wrap;html=1;" parent="1" vertex="1">
          <mxGeometry x="660" y="30" width="120" height="60" as="geometry" />
        </mxCell>
        <mxCell id="REK4LTANbWhDEIIJufRj-62" value="Ιστότοπος κτιρίου" style="text;html=1;strokeColor=none;fillColor=none;align=center;verticalAlign=middle;whiteSpace=wrap;rounded=0;" parent="1" vertex="1">
          <mxGeometry x="690" y="45" width="60" height="30" as="geometry" />
        </mxCell>
        <mxCell id="REK4LTANbWhDEIIJufRj-63" value="" style="rounded=0;whiteSpace=wrap;html=1;rotation=-90;fillColor=#f0a30a;strokeColor=#BD7000;fontColor=#000000;" parent="1" vertex="1">
          <mxGeometry x="650" y="690.0000000000001" width="92.12" height="16.12" as="geometry" />
        </mxCell>
        <mxCell id="REK4LTANbWhDEIIJufRj-64" value="" style="endArrow=classic;html=1;rounded=0;" parent="1" edge="1">
          <mxGeometry width="50" height="50" relative="1" as="geometry">
            <mxPoint x="590" y="660" as="sourcePoint" />
            <mxPoint x="680" y="660" as="targetPoint" />
          </mxGeometry>
        </mxCell>
        <mxCell id="REK4LTANbWhDEIIJufRj-65" value="Επιλογή ιστότοπου" style="text;html=1;strokeColor=none;fillColor=default;align=center;verticalAlign=middle;whiteSpace=wrap;rounded=0;" parent="1" vertex="1">
          <mxGeometry x="600" y="626.12" width="60" height="30" as="geometry" />
        </mxCell>
        <mxCell id="REK4LTANbWhDEIIJufRj-66" value="" style="endArrow=none;dashed=1;html=1;rounded=0;exitX=1;exitY=0.5;exitDx=0;exitDy=0;" parent="1" source="REK4LTANbWhDEIIJufRj-63" edge="1">
          <mxGeometry width="50" height="50" relative="1" as="geometry">
            <mxPoint x="695" y="650" as="sourcePoint" />
            <mxPoint x="696" y="90" as="targetPoint" />
          </mxGeometry>
        </mxCell>
        <mxCell id="REK4LTANbWhDEIIJufRj-67" value="" style="endArrow=none;dashed=1;html=1;rounded=0;" parent="1" source="REK4LTANbWhDEIIJufRj-85" edge="1">
          <mxGeometry width="50" height="50" relative="1" as="geometry">
            <mxPoint x="696" y="1650" as="sourcePoint" />
            <mxPoint x="696" y="740" as="targetPoint" />
          </mxGeometry>
        </mxCell>
        <mxCell id="REK4LTANbWhDEIIJufRj-68" value="κουμπί επιστροφής" style="html=1;verticalAlign=bottom;endArrow=open;dashed=1;endSize=8;edgeStyle=elbowEdgeStyle;elbow=vertical;curved=0;rounded=0;" parent="1" edge="1">
          <mxGeometry x="0.2719" y="-10" relative="1" as="geometry">
            <mxPoint x="670" y="720" as="sourcePoint" />
            <mxPoint x="450" y="720" as="targetPoint" />
            <mxPoint as="offset" />
          </mxGeometry>
        </mxCell>
        <mxCell id="REK4LTANbWhDEIIJufRj-69" value="κουμπί επιστροφής" style="html=1;verticalAlign=bottom;endArrow=open;dashed=1;endSize=8;edgeStyle=elbowEdgeStyle;elbow=vertical;curved=0;rounded=0;" parent="1" edge="1">
          <mxGeometry x="-0.1044" y="-11" relative="1" as="geometry">
            <mxPoint x="410" y="760" as="sourcePoint" />
            <mxPoint x="297.5" y="760.6600000000001" as="targetPoint" />
            <mxPoint as="offset" />
          </mxGeometry>
        </mxCell>
        <mxCell id="REK4LTANbWhDEIIJufRj-70" value="κουμπί επιστροφής" style="html=1;verticalAlign=bottom;endArrow=open;dashed=1;endSize=8;edgeStyle=elbowEdgeStyle;elbow=vertical;curved=0;rounded=0;" parent="1" edge="1">
          <mxGeometry x="0.2719" y="-10" relative="1" as="geometry">
            <mxPoint x="270" y="790" as="sourcePoint" />
            <mxPoint x="190" y="790.33" as="targetPoint" />
            <mxPoint as="offset" />
          </mxGeometry>
        </mxCell>
        <mxCell id="REK4LTANbWhDEIIJufRj-72" value="" style="endArrow=none;dashed=1;html=1;rounded=0;entryX=0;entryY=0.5;entryDx=0;entryDy=0;" parent="1" source="REK4LTANbWhDEIIJufRj-105" target="REK4LTANbWhDEIIJufRj-71" edge="1">
          <mxGeometry width="50" height="50" relative="1" as="geometry">
            <mxPoint x="180" y="1660" as="sourcePoint" />
            <mxPoint x="176" y="202" as="targetPoint" />
          </mxGeometry>
        </mxCell>
        <mxCell id="REK4LTANbWhDEIIJufRj-71" value="" style="rounded=0;whiteSpace=wrap;html=1;rotation=-90;fillColor=#f0a30a;strokeColor=#BD7000;fontColor=#000000;" parent="1" vertex="1">
          <mxGeometry x="145.92999999999995" y="811" width="60" height="16.12" as="geometry" />
        </mxCell>
        <mxCell id="REK4LTANbWhDEIIJufRj-77" value="" style="endArrow=classic;html=1;rounded=0;" parent="1" edge="1">
          <mxGeometry width="50" height="50" relative="1" as="geometry">
            <mxPoint x="300" y="1206.74" as="sourcePoint" />
            <mxPoint x="410" y="1206.74" as="targetPoint" />
          </mxGeometry>
        </mxCell>
        <mxCell id="REK4LTANbWhDEIIJufRj-79" value="δείξε ενδείξεις κτιρίων" style="text;html=1;strokeColor=none;fillColor=default;align=center;verticalAlign=middle;whiteSpace=wrap;rounded=0;" parent="1" vertex="1">
          <mxGeometry x="330.57" y="1140" width="65" height="46.25" as="geometry" />
        </mxCell>
        <mxCell id="REK4LTANbWhDEIIJufRj-80" value="επέστρεψε ενδείξεις" style="html=1;verticalAlign=bottom;endArrow=open;dashed=1;endSize=8;edgeStyle=elbowEdgeStyle;elbow=vertical;curved=0;rounded=0;" parent="1" edge="1">
          <mxGeometry x="-0.1" y="-10" relative="1" as="geometry">
            <mxPoint x="407.5" y="1260.3599999999997" as="sourcePoint" />
            <mxPoint x="307.5" y="1260.3599999999997" as="targetPoint" />
            <mxPoint as="offset" />
          </mxGeometry>
        </mxCell>
        <mxCell id="REK4LTANbWhDEIIJufRj-83" value="" style="endArrow=classic;html=1;rounded=0;" parent="1" edge="1">
          <mxGeometry width="50" height="50" relative="1" as="geometry">
            <mxPoint x="447.75" y="1400" as="sourcePoint" />
            <mxPoint x="567.7499999999999" y="1400" as="targetPoint" />
          </mxGeometry>
        </mxCell>
        <mxCell id="REK4LTANbWhDEIIJufRj-84" value="Εμφάνισε" style="text;html=1;strokeColor=none;fillColor=default;align=center;verticalAlign=middle;whiteSpace=wrap;rounded=0;" parent="1" vertex="1">
          <mxGeometry x="480" y="1360" width="60" height="30" as="geometry" />
        </mxCell>
        <mxCell id="REK4LTANbWhDEIIJufRj-86" value="" style="endArrow=classic;html=1;rounded=0;" parent="1" edge="1">
          <mxGeometry width="50" height="50" relative="1" as="geometry">
            <mxPoint x="594.8599999999999" y="1426.12" as="sourcePoint" />
            <mxPoint x="684.8599999999999" y="1426.12" as="targetPoint" />
          </mxGeometry>
        </mxCell>
        <mxCell id="REK4LTANbWhDEIIJufRj-87" value="Επιλογή ιστότοπου" style="text;html=1;strokeColor=none;fillColor=default;align=center;verticalAlign=middle;whiteSpace=wrap;rounded=0;" parent="1" vertex="1">
          <mxGeometry x="604.0699999999999" y="1380" width="60" height="30" as="geometry" />
        </mxCell>
        <mxCell id="REK4LTANbWhDEIIJufRj-88" value="κουμπί επιστροφής" style="html=1;verticalAlign=bottom;endArrow=open;dashed=1;endSize=8;edgeStyle=elbowEdgeStyle;elbow=vertical;curved=0;rounded=0;" parent="1" edge="1">
          <mxGeometry x="0.2719" y="-10" relative="1" as="geometry">
            <mxPoint x="683.9399999999999" y="1500.6999999999998" as="sourcePoint" />
            <mxPoint x="463.94" y="1500.6999999999998" as="targetPoint" />
            <mxPoint as="offset" />
          </mxGeometry>
        </mxCell>
        <mxCell id="REK4LTANbWhDEIIJufRj-89" value="κουμπί επιστροφής" style="html=1;verticalAlign=bottom;endArrow=open;dashed=1;endSize=8;edgeStyle=elbowEdgeStyle;elbow=vertical;curved=0;rounded=0;" parent="1" edge="1">
          <mxGeometry x="-0.1044" y="-11" relative="1" as="geometry">
            <mxPoint x="419.32" y="1549.9999999999998" as="sourcePoint" />
            <mxPoint x="306.82" y="1550.66" as="targetPoint" />
            <mxPoint as="offset" />
          </mxGeometry>
        </mxCell>
        <mxCell id="REK4LTANbWhDEIIJufRj-90" value="κουμπί επιστροφής" style="html=1;verticalAlign=bottom;endArrow=open;dashed=1;endSize=8;edgeStyle=elbowEdgeStyle;elbow=vertical;curved=0;rounded=0;" parent="1" edge="1">
          <mxGeometry x="0.2719" y="-10" relative="1" as="geometry">
            <mxPoint x="270" y="1600.62" as="sourcePoint" />
            <mxPoint x="190" y="1600.95" as="targetPoint" />
            <Array as="points">
              <mxPoint x="225.93" y="1600" />
            </Array>
            <mxPoint as="offset" />
          </mxGeometry>
        </mxCell>
        <mxCell id="REK4LTANbWhDEIIJufRj-93" value="" style="endArrow=none;dashed=1;html=1;rounded=0;" parent="1" source="REK4LTANbWhDEIIJufRj-137" target="REK4LTANbWhDEIIJufRj-92" edge="1">
          <mxGeometry width="50" height="50" relative="1" as="geometry">
            <mxPoint x="286" y="2640" as="sourcePoint" />
            <mxPoint x="286" y="799" as="targetPoint" />
          </mxGeometry>
        </mxCell>
        <mxCell id="REK4LTANbWhDEIIJufRj-92" value="" style="rounded=0;whiteSpace=wrap;html=1;rotation=-90;fillColor=#f0a30a;strokeColor=#BD7000;fontColor=#000000;" parent="1" vertex="1">
          <mxGeometry x="5.34" y="1313.92" width="561.85" height="17.5" as="geometry" />
        </mxCell>
        <mxCell id="REK4LTANbWhDEIIJufRj-94" value="μεγέθυνση/σμίκρυνση" style="text;html=1;strokeColor=none;fillColor=default;align=center;verticalAlign=middle;whiteSpace=wrap;rounded=0;" parent="1" vertex="1">
          <mxGeometry x="110" y="1110" width="60" height="30" as="geometry" />
        </mxCell>
        <mxCell id="REK4LTANbWhDEIIJufRj-95" value="" style="endArrow=classic;html=1;rounded=0;" parent="1" edge="1">
          <mxGeometry width="50" height="50" relative="1" as="geometry">
            <mxPoint x="70" y="1160" as="sourcePoint" />
            <mxPoint x="270" y="1160" as="targetPoint" />
            <Array as="points">
              <mxPoint x="170" y="1160" />
            </Array>
          </mxGeometry>
        </mxCell>
        <mxCell id="REK4LTANbWhDEIIJufRj-97" value="" style="endArrow=none;dashed=1;html=1;rounded=0;entryX=0;entryY=0.5;entryDx=0;entryDy=0;" parent="1" target="REK4LTANbWhDEIIJufRj-91" edge="1">
          <mxGeometry width="50" height="50" relative="1" as="geometry">
            <mxPoint x="180" y="2646.153846153846" as="sourcePoint" />
            <mxPoint x="176" y="849" as="targetPoint" />
          </mxGeometry>
        </mxCell>
        <mxCell id="REK4LTANbWhDEIIJufRj-91" value="" style="rounded=0;whiteSpace=wrap;html=1;rotation=-90;fillColor=#f0a30a;strokeColor=#BD7000;fontColor=#000000;" parent="1" vertex="1">
          <mxGeometry x="149.99999999999994" y="1610" width="60" height="16.12" as="geometry" />
        </mxCell>
        <mxCell id="REK4LTANbWhDEIIJufRj-101" value="" style="endArrow=none;dashed=1;html=1;rounded=0;" parent="1" source="REK4LTANbWhDEIIJufRj-128" target="REK4LTANbWhDEIIJufRj-100" edge="1">
          <mxGeometry width="50" height="50" relative="1" as="geometry">
            <mxPoint x="56" y="2640" as="sourcePoint" />
            <mxPoint x="56" y="811" as="targetPoint" />
          </mxGeometry>
        </mxCell>
        <mxCell id="REK4LTANbWhDEIIJufRj-100" value="" style="rounded=0;whiteSpace=wrap;html=1;rotation=-90;fillColor=#f0a30a;strokeColor=#BD7000;fontColor=#000000;" parent="1" vertex="1">
          <mxGeometry x="-270.78" y="1293.45" width="654.07" height="17.5" as="geometry" />
        </mxCell>
        <mxCell id="REK4LTANbWhDEIIJufRj-102" value="Επιλογή &quot;Χάρτης&quot;" style="text;html=1;strokeColor=none;fillColor=default;align=center;verticalAlign=middle;whiteSpace=wrap;rounded=0;" parent="1" vertex="1">
          <mxGeometry x="81.87" y="960" width="60" height="30" as="geometry" />
        </mxCell>
        <mxCell id="REK4LTANbWhDEIIJufRj-103" value="" style="endArrow=classic;html=1;rounded=0;" parent="1" edge="1">
          <mxGeometry width="50" height="50" relative="1" as="geometry">
            <mxPoint x="66.87" y="1000" as="sourcePoint" />
            <mxPoint x="156.87" y="1000" as="targetPoint" />
          </mxGeometry>
        </mxCell>
        <mxCell id="REK4LTANbWhDEIIJufRj-104" value="Εμφάνισε" style="text;html=1;strokeColor=none;fillColor=default;align=center;verticalAlign=middle;whiteSpace=wrap;rounded=0;" parent="1" vertex="1">
          <mxGeometry x="200" y="1008.12" width="60" height="30" as="geometry" />
        </mxCell>
        <mxCell id="REK4LTANbWhDEIIJufRj-108" value="" style="endArrow=none;dashed=1;html=1;rounded=0;entryX=0;entryY=0.5;entryDx=0;entryDy=0;" parent="1" source="REK4LTANbWhDEIIJufRj-91" target="REK4LTANbWhDEIIJufRj-105" edge="1">
          <mxGeometry width="50" height="50" relative="1" as="geometry">
            <mxPoint x="180" y="1528" as="sourcePoint" />
            <mxPoint x="176" y="849" as="targetPoint" />
          </mxGeometry>
        </mxCell>
        <mxCell id="REK4LTANbWhDEIIJufRj-105" value="" style="rounded=0;whiteSpace=wrap;html=1;rotation=-90;fillColor=#f0a30a;strokeColor=#BD7000;fontColor=#000000;" parent="1" vertex="1">
          <mxGeometry x="137.80499999999995" y="1015.3149999999999" width="68.13" height="15.62" as="geometry" />
        </mxCell>
        <mxCell id="REK4LTANbWhDEIIJufRj-109" value="" style="endArrow=classic;html=1;rounded=0;exitX=0.25;exitY=1;exitDx=0;exitDy=0;" parent="1" edge="1">
          <mxGeometry width="50" height="50" relative="1" as="geometry">
            <mxPoint x="184" y="1046.25" as="sourcePoint" />
            <mxPoint x="270" y="1046.25" as="targetPoint" />
          </mxGeometry>
        </mxCell>
        <mxCell id="REK4LTANbWhDEIIJufRj-111" value="" style="endArrow=none;dashed=1;html=1;rounded=0;entryX=0;entryY=0.5;entryDx=0;entryDy=0;" parent="1" target="REK4LTANbWhDEIIJufRj-81" edge="1">
          <mxGeometry width="50" height="50" relative="1" as="geometry">
            <mxPoint x="439" y="2640" as="sourcePoint" />
            <mxPoint x="435" y="1600" as="targetPoint" />
          </mxGeometry>
        </mxCell>
        <mxCell id="REK4LTANbWhDEIIJufRj-81" value="" style="rounded=0;whiteSpace=wrap;html=1;rotation=-90;fillColor=#f0a30a;strokeColor=#BD7000;fontColor=#000000;" parent="1" vertex="1">
          <mxGeometry x="332.19" y="1450" width="213.37" height="16.12" as="geometry" />
        </mxCell>
        <mxCell id="REK4LTANbWhDEIIJufRj-116" value="" style="endArrow=none;dashed=1;html=1;rounded=0;entryX=0;entryY=0.75;entryDx=0;entryDy=0;" parent="1" source="REK4LTANbWhDEIIJufRj-81" target="REK4LTANbWhDEIIJufRj-78" edge="1">
          <mxGeometry width="50" height="50" relative="1" as="geometry">
            <mxPoint x="437" y="1391" as="sourcePoint" />
            <mxPoint x="435" y="785" as="targetPoint" />
          </mxGeometry>
        </mxCell>
        <mxCell id="REK4LTANbWhDEIIJufRj-78" value="" style="rounded=0;whiteSpace=wrap;html=1;rotation=-90;fillColor=#f0a30a;strokeColor=#BD7000;fontColor=#000000;" parent="1" vertex="1">
          <mxGeometry x="392.82" y="1236.7399999999998" width="92.12" height="16.12" as="geometry" />
        </mxCell>
        <mxCell id="REK4LTANbWhDEIIJufRj-118" value="Επιλογή ένδειξης" style="text;html=1;strokeColor=none;fillColor=default;align=center;verticalAlign=middle;whiteSpace=wrap;rounded=0;" parent="1" vertex="1">
          <mxGeometry x="100" y="1330" width="60" height="30" as="geometry" />
        </mxCell>
        <mxCell id="REK4LTANbWhDEIIJufRj-119" value="" style="endArrow=classic;html=1;rounded=0;" parent="1" edge="1">
          <mxGeometry width="50" height="50" relative="1" as="geometry">
            <mxPoint x="81.87" y="1370" as="sourcePoint" />
            <mxPoint x="421.87" y="1370" as="targetPoint" />
          </mxGeometry>
        </mxCell>
        <mxCell id="REK4LTANbWhDEIIJufRj-123" value="" style="endArrow=none;dashed=1;html=1;rounded=0;entryX=0;entryY=0.5;entryDx=0;entryDy=0;" parent="1" target="REK4LTANbWhDEIIJufRj-82" edge="1">
          <mxGeometry width="50" height="50" relative="1" as="geometry">
            <mxPoint x="580" y="2640" as="sourcePoint" />
            <mxPoint x="574" y="672" as="targetPoint" />
          </mxGeometry>
        </mxCell>
        <mxCell id="REK4LTANbWhDEIIJufRj-82" value="" style="rounded=0;whiteSpace=wrap;html=1;rotation=-90;fillColor=#f0a30a;strokeColor=#BD7000;fontColor=#000000;" parent="1" vertex="1">
          <mxGeometry x="544.0699999999999" y="1410" width="60" height="16.12" as="geometry" />
        </mxCell>
        <mxCell id="REK4LTANbWhDEIIJufRj-126" value="" style="endArrow=none;dashed=1;html=1;rounded=0;" parent="1" target="REK4LTANbWhDEIIJufRj-85" edge="1">
          <mxGeometry width="50" height="50" relative="1" as="geometry">
            <mxPoint x="700" y="2640" as="sourcePoint" />
            <mxPoint x="696" y="740" as="targetPoint" />
          </mxGeometry>
        </mxCell>
        <mxCell id="REK4LTANbWhDEIIJufRj-85" value="" style="rounded=0;whiteSpace=wrap;html=1;rotation=-90;fillColor=#f0a30a;strokeColor=#BD7000;fontColor=#000000;" parent="1" vertex="1">
          <mxGeometry x="649.9999999999999" y="1460" width="92.12" height="16.12" as="geometry" />
        </mxCell>
        <mxCell id="REK4LTANbWhDEIIJufRj-127" value="&lt;font style=&quot;font-size: 10px;&quot;&gt;Εναλλακτική ροή 1&amp;nbsp;&lt;/font&gt;" style="shape=umlFrame;whiteSpace=wrap;html=1;pointerEvents=0;" parent="1" vertex="1">
          <mxGeometry x="5.34" y="920" width="824.66" height="740" as="geometry" />
        </mxCell>
        <mxCell id="REK4LTANbWhDEIIJufRj-129" value="" style="endArrow=none;dashed=1;html=1;rounded=0;" parent="1" target="REK4LTANbWhDEIIJufRj-128" edge="1">
          <mxGeometry width="50" height="50" relative="1" as="geometry">
            <mxPoint x="56" y="2640" as="sourcePoint" />
            <mxPoint x="56" y="1629" as="targetPoint" />
          </mxGeometry>
        </mxCell>
        <mxCell id="REK4LTANbWhDEIIJufRj-128" value="" style="rounded=0;whiteSpace=wrap;html=1;rotation=-90;fillColor=#f0a30a;strokeColor=#BD7000;fontColor=#000000;" parent="1" vertex="1">
          <mxGeometry x="-326.02" y="2133.99" width="762.04" height="17.5" as="geometry" />
        </mxCell>
        <mxCell id="REK4LTANbWhDEIIJufRj-130" value="Επιλογή &quot;Χάρτης&quot;" style="text;html=1;strokeColor=none;fillColor=default;align=center;verticalAlign=middle;whiteSpace=wrap;rounded=0;" parent="1" vertex="1">
          <mxGeometry x="81.87" y="1740" width="60" height="30" as="geometry" />
        </mxCell>
        <mxCell id="REK4LTANbWhDEIIJufRj-131" value="" style="endArrow=classic;html=1;rounded=0;" parent="1" edge="1">
          <mxGeometry width="50" height="50" relative="1" as="geometry">
            <mxPoint x="66.87" y="1780" as="sourcePoint" />
            <mxPoint x="156.87" y="1780" as="targetPoint" />
          </mxGeometry>
        </mxCell>
        <mxCell id="REK4LTANbWhDEIIJufRj-132" value="Εμφάνισε" style="text;html=1;strokeColor=none;fillColor=default;align=center;verticalAlign=middle;whiteSpace=wrap;rounded=0;" parent="1" vertex="1">
          <mxGeometry x="200" y="1780" width="60" height="30" as="geometry" />
        </mxCell>
        <mxCell id="REK4LTANbWhDEIIJufRj-133" value="" style="endArrow=classic;html=1;rounded=0;exitX=0.25;exitY=1;exitDx=0;exitDy=0;" parent="1" edge="1">
          <mxGeometry width="50" height="50" relative="1" as="geometry">
            <mxPoint x="187" y="1830" as="sourcePoint" />
            <mxPoint x="273" y="1830" as="targetPoint" />
          </mxGeometry>
        </mxCell>
        <mxCell id="REK4LTANbWhDEIIJufRj-135" value="" style="rounded=0;whiteSpace=wrap;html=1;rotation=-90;fillColor=#f0a30a;strokeColor=#BD7000;fontColor=#000000;" parent="1" vertex="1">
          <mxGeometry x="145.93500000000006" y="1810.005" width="68.13" height="15.62" as="geometry" />
        </mxCell>
        <mxCell id="REK4LTANbWhDEIIJufRj-138" value="" style="endArrow=none;dashed=1;html=1;rounded=0;" parent="1" target="REK4LTANbWhDEIIJufRj-137" edge="1">
          <mxGeometry width="50" height="50" relative="1" as="geometry">
            <mxPoint x="286" y="2640" as="sourcePoint" />
            <mxPoint x="286" y="1604" as="targetPoint" />
          </mxGeometry>
        </mxCell>
        <mxCell id="REK4LTANbWhDEIIJufRj-137" value="" style="rounded=0;whiteSpace=wrap;html=1;rotation=-90;fillColor=#f0a30a;strokeColor=#BD7000;fontColor=#000000;" parent="1" vertex="1">
          <mxGeometry x="-22.340000000000032" y="2120" width="617.2" height="17.5" as="geometry" />
        </mxCell>
        <mxCell id="REK4LTANbWhDEIIJufRj-139" value="" style="endArrow=classic;html=1;rounded=0;" parent="1" edge="1">
          <mxGeometry width="50" height="50" relative="1" as="geometry">
            <mxPoint x="80" y="1930" as="sourcePoint" />
            <mxPoint x="260" y="1930" as="targetPoint" />
          </mxGeometry>
        </mxCell>
        <mxCell id="REK4LTANbWhDEIIJufRj-140" value="Αναζήτηση" style="text;html=1;strokeColor=none;fillColor=none;align=center;verticalAlign=middle;whiteSpace=wrap;rounded=0;" parent="1" vertex="1">
          <mxGeometry x="120" y="1890" width="60" height="30" as="geometry" />
        </mxCell>
      </root>
    </mxGraphModel>
  </diagram>
</mxfile>
